# xmcd
#
# Track frame offsets: 
#        150
#        9293
#        21675
#        33355
#        46318
#        57406
#        69609
#        80942
#        92499
#        100941
#        113989
#        127158
#
# Disc length: 1854 seconds
#
# Revision: 0
# Processed by: cddbd v1.5.2PL0 Copyright (c) Steve Scherf et al.
# Submitted via: ExactAudioCopy v0.95b3
#
DISCID=a6073c0c
DTITLE=Brenda Lee  - By Request
DYEAR=1900
DGENRE=
TTITLE0=More
TTITLE1=Days Of Wine and Roses
TTITLE2=Danke Schoen
TTITLE3=Tammy
TTITLE4=Why Don't You Believe Me
TTITLE5=I Love You Because
TTITLE6=As Usual
TTITLE7=Blue Velvet
TTITLE8=My Whole World Is Falling Down
TTITLE9=I Wonder
TTITLE10=I'm Confessin'
TTITLE11=The Grass Is Greener
EXTD=
EXTT0=
EXTT1=
EXTT2=
EXTT3=
EXTT4=
EXTT5=
EXTT6=
EXTT7=
EXTT8=
EXTT9=
EXTT10=
EXTT11=
PLAYORDER=
